<?xml version="1.0" encoding="utf-8"?>
<!-- Generator: Adobe Illustrator 23.0.2, SVG Export Plug-In . SVG Version: 6.00 Build 0)  -->
<svg version="1.1" id="Layer_1" xmlns="http://www.w3.org/2000/svg" xmlns:xlink="http://www.w3.org/1999/xlink" x="0px" y="0px"
	 viewBox="0 0 170 62" style="enable-background:new 0 0 170 62;" xml:space="preserve">
<style type="text/css">
	.st0{filter:url(#Adobe_OpacityMaskFilter);}
	.st1{fill-rule:evenodd;clip-rule:evenodd;fill:#FFFFFF;}
	.st2{mask:url(#mask-2_1_);fill-rule:evenodd;clip-rule:evenodd;}
	.st3{fill-rule:evenodd;clip-rule:evenodd;}
</style>
<title>CasaCookRhodes-logo</title>
<desc>Created with Sketch.</desc>
<g id="Icons">
	<g id="logo" transform="translate(0.000000, -1.000000)">
		<g id="CasaCookRhodes-logo" transform="translate(0.000000, 1.000000)">
			<g id="Group-3" transform="translate(0.000000, 4.289772)">
				<g id="Clip-2">
				</g>
				<defs>
					<filter id="Adobe_OpacityMaskFilter" filterUnits="userSpaceOnUse" x="0" y="0.3" width="60.5" height="43.9">
						<feColorMatrix  type="matrix" values="1 0 0 0 0  0 1 0 0 0  0 0 1 0 0  0 0 0 1 0"/>
					</filter>
				</defs>
				<mask maskUnits="userSpaceOnUse" x="0" y="0.3" width="60.5" height="43.9" id="mask-2_1_">
					<g class="st0">
						<polygon id="path-1_1_" class="st1" points="0,0.3 60.5,0.3 60.5,44.2 0,44.2 						"/>
					</g>
				</mask>
				<path id="Fill-1" class="st2" d="M59.6,31.7c-0.4-1.6-1.4-3.8-1.2-5.5c0.1-0.8,1.8-1.6,2-2.2c0.2-0.5,0-0.8-0.5-0.8
					c-0.3,0-1.4,1-2.1-0.3c-0.4-0.7-0.1-2.6-0.1-3.4c0.1-1.7,1.8-5.3,0-6.5c-0.7-0.5-1.7-0.8-2.5-0.6c-0.8,0.1-1.5,0.6-1.8-0.4
					c-0.4-1.5,0.6-3,0.1-4.5C53.1,6.4,52,6.4,51,6c-0.7-0.3-1.7-0.3-2.5,0c-0.9,0.4-0.9,1.2-1.2,2c-0.4,1.1-0.9,2.1-1.1,3.3
					c-0.4,2.4,1.2,4.4,1.1,6.8c-0.1,2.4-1.9,4.8-2.5,7.1c-0.7,2.5-1.7,4.6-2.9,6.9c-1.1,1.9-2.5,2.7-4.4,3.8c-1.2-2.7,2-6.6-1.4-8.1
					c-1.1-0.5-2.7-0.9-4-0.7c-1.3,0.1-1.4,1-1.8,2.1c-0.5,1.3-1.4,2.6-2.1,3.8c-0.2,0.3-0.4,1-0.7,0.4c-0.1-0.3,0.3-1.3,0.3-1.6
					c0.8-3.5,2.2-6.8,4.1-9.8c0.5,0.7,1,1,1.7,1.3c0.5,0.2,1,0.4,1.6,0.3c0.9-0.1,1.1-0.9,1.5-1.7c0.7-1.5,1.1-3.8-0.1-5.2
					c-1.3-1.5-3.2-2.3-5-2.5c-0.9-0.1-2.1-0.4-3,0.2c-0.8,0.5-1.1,1.5-1.4,2.3c-1.2,2.4-2.5,4.8-3.6,7.3c-1,2.2-2.3,3.6-4.1,5.1
					c-3.7,3.2-7.3,6.4-11.1,9.3c-0.3,0.2-0.8,0.1-0.9-0.3c-0.4-1.4-1.1-3.7-0.6-6.1C7,31,7,30.2,7.2,29.4c0.3-1.7,0.7-3.4,1.3-5
					c1.1-3.3,2-6.7,3.5-9.8c0.8-1.6,1.9-3,2.9-4.5c0.8-1.1,2-2.6,3.2-3.3C19.3,6,20,7.1,20.1,8.3c0.1,0.7-0.2,1.5,0.1,2.1
					c0.2,0.4,0.5,0.9,1.3,0.9c1.5,0.1,2.2-0.2,3-1.8c0.8-1.7,0.2-3-0.8-4.4c-0.9-1.2-1.9-2.7-3.3-3.5c-1.2-0.7-2.8-0.8-4.1-1.1
					C15,0.2,13.9,0,12.7,1c-1.1,0.9-2,2-2.9,3.1c-2,2.4-3.5,5.1-4.9,7.9C2.2,17.7,0.4,24.4,0,30.6c-0.3,5.7,3.2,11.3,8.5,13.3
					c1.1,0.4,2.9,0.3,3.9-0.3c1-0.6,2.3-2,3-2.9c0.9-1.3,1.8-2,2.6-3.3c0.9-1.3,2-2.2,3-3.3c0.4,1.1,0.7,2.2,1.4,3.1
					c0.6,0.7,1.3,1.3,2,1.8c1.5,1.2,3.2,1.8,5.1,1c0.9-0.4,1.6-1,2.4-1.5c0.5-0.3,1-1,1.6-1.2c0.6-0.2,0.8,0.2,1.3,0.6
					c0.7,0.6,1.5,1.2,2.4,1.4c0.7,0.1,1.6,0.2,2.3,0c0.9-0.3,4.9-1,6.6-3.9c0.9-1.5,1.9-3.1,2.7-4.6c0.9-1.7,1-3.7,1.5-5.5
					c0.2-0.8,0.4-3.8,1.5-4.1c0.9-0.3,0.9,1.5,1,2c0.3,1.5,1,2.8-0.2,4c-1.2,1.2-2.5,2.2-3.3,3.7c-1.9,3.5-0.1,7.3,2.5,9.8
					c2.2,2.1,5.9,3.2,7.7,0C61.2,38.2,60.4,34.6,59.6,31.7 M54.6,36.4c-0.1,0.5-0.6,2.5-1.5,2c-0.6-0.4-0.4-2.2-0.3-2.8
					c0.2-1.5,0.8-2.8,1.8-3.9C55.1,33.3,55,34.8,54.6,36.4"/>
			</g>
			<path id="Fill-4" class="st3" d="M82.9,41.1c0-0.7-0.3-2.2-1.2-1.8c-0.9,0.4-1.8,0.8-2.7,1.2c-0.6,0.3-1.4,0.8-2.1,0.4
				c-1-0.6-0.7-2.6-0.7-3.5c0.1-1.6,0.6-3.2,0.4-4.8c-0.2-1.7-1.8-2.4-3.3-2.6c-0.5,0-1,0-1.5-0.1c-0.6-0.2-1-0.3-1.6-0.2
				c-0.8,0.3-1,1.1-1.3,1.8c-0.5,1.2-1.2,2.2-1.9,3.3c-0.1,0.1-0.3,0-0.2-0.1c0.3-2.5,1.3-4.6,2.7-6.8c0.3-0.5,0.5-0.4,0.5,0.9
				c0,0.1,0,1.1,0.1,1.1c0.1,0,2.6,0.3,2.9,0.3c0.2-0.1,0.5-0.2,0.7-0.3c0.3-0.3,0.7-0.9,1-1.3c0.8-1,0.4-3,0-4.1
				c-0.7-2.3-3-3.4-5.3-3.6c-0.9-0.1-2.1-0.2-2.9,0.4c-0.9,0.6-1.5,1.7-1.9,2.6c-1.4,2.5-2.6,5.2-3.3,8c-0.5,2.5-0.5,5.2,0.8,7.5
				c1.1,1.9,2.9,3.8,5.3,3.8c1.1,0,2-0.4,2.7-1.2c0.6-0.7,0.9-1.2,1.7-0.4c1.5,1.5,2.9,3.7,5.1,4.3c0.4,0.1,0.9,0.2,1.3,0.2
				c0.5,0,0.9,0,1.5,0c1.1,0,1.8-1.3,2.4-2.1C82.4,43.2,82.9,42,82.9,41.1"/>
			<path id="Fill-6" class="st3" d="M124.8,22.9c-0.2-1-0.9-2.1-1.2-2.4c-0.9-0.9-1.8-1.4-3.1-1.4c-1.3,0-2.4-0.1-3.2,1
				c-0.7,0.8-1.1,1.8-1.7,2.8c-0.1,0.2-0.4,0.1-0.4-0.1c0-0.5,0.1-0.7,0.3-1.3c0.3-0.7-0.1-0.9-0.3-1c-1.2-0.6-1.9,0.1-2.5,1.2
				c-0.9,1.5-1.6,3-2.4,4.5c-0.6,1.3-2.1,2.6-2.7,3.2c-4.2,5-9.2,8-15,11.2c-0.4-1.6,0-3.4,0.1-5.1c0.2-2,0.5-4,1.1-5.9
				c1.1-3.7,2.7-7.2,4.5-10.5c1.7-3.1,3.6-6,5.9-8.7c1.4-1.6,3.3-3.9,5.6-4.4c0,0,0.1,0,0.1,0c0.2,0,0.5,0,0.7,0
				c0.2,0.1,0.3,0.2,0.4,0.3c0,0,0,0,0,0.1c0.4,0.4,0.6,0.9,1.2,1c0.9,0.3,1.7-0.4,2.3-0.9c1.5-1.2,1.5-2.7-0.1-3.9
				c-1.7-1.3-4.1-1.7-6.2-2.2c-1.3-0.3-2.4-0.5-3.7,0c-1.1,0.5-2,1.1-2.9,1.9c-6.8,5.9-11.6,14.5-14,23.1c-1.2,4.2-2.5,9.1-1.2,13.5
				c1.1,3.7,3.9,9,8.7,8.2c1.1-0.2,2.1-0.5,3.1-1c2.1-1.1,2.4-1.6,2.9-2.1c1.3-1.3,3-4,3.4-4.7c0.4-0.6,1.3-0.6,1.8,0.1
				c0.2,0.2,0.5,0.7,0.8,0.9c0.3,0.4,0.7,0.7,1.1,1c1.7,1.3,3.6,2.8,5.9,3.1c1.8,0.2,3.9-0.8,5.1-2.1c0.5-0.6,1.1-1.6,1.3-2.4
				c0.2-0.6,0.3-1.1,0.6-1.7c0.2-0.5,0.3-1.1,0.6-1.6c1-2.2,1.8-4.7,2.2-7.1c0.2-1.3,0.4-2.6,0.6-3.9
				C124.9,24.5,124.9,24,124.8,22.9 M116.7,27.9c-0.5,1.3-1,2.7-1.6,4c-0.6,1.3-1.4,2.5-2.1,3.7c-0.5,0.9-1,2-2,2.5
				c-0.3-1.5,0.5-2.9,1-4.3c0.5-1.4,0.6-2.9,0.9-4.3c0.3-2.1,1.4-6.1,4.2-6.1c0,0,0.9,0,1,0.5C118,25.2,117.2,26.5,116.7,27.9"/>
			<path id="Fill-8" class="st3" d="M168.9,38.1c-0.5-0.3-2.1,0.7-2.6,0.9c-0.9,0.3-1.7,0.5-2.6,0.8c-1.3,0.4-2.7,0.7-4.1,0.7
				c-1.2,0.1-2.6,0-3.5-0.9c-1.2-1.1-0.8-3.1-0.3-4.4c0.7-1.6,1.7-2.6,3.1-3.7c0.3-0.3,1.9-1.2,3-1.4c0.7-0.2,0.8-0.2,1-0.4
				c1-1.7,1.9-3.1,0.1-4.8c-1.7-1.6-3.9-1.7-6.1-2c1-2.3,1.9-4.5,2.9-6.8c0.4-0.9,1-2.5,1.5-3.4c0.3-0.6,0.8-1.3,0.7-2
				c-0.3-1.2-2.1-1.6-3.1-1.9c-1.5-0.3-2.3,0-2.9,1.4c-1.1,2.7-2.6,5.3-4.7,7.5c-3.4,2.8-6.9,5.8-11,7.4c0.1-1.4,0.6-3.4,0.1-4.8
				c-0.3-1-1.3-1.1-2.2-1.3c-0.8-0.2-1.7-0.7-2.3,0c-0.7,0.9-0.7,2.9-0.7,4c0,3.1-0.9,5.7-2,8.6c-1,2.8-2.2,5.2-4,7.6
				c-0.4-3.4,1.2-7,2.8-9.9c1.2-2.2,4-5.5,0.4-7.1c-1-0.4-2.6-0.9-3.4-0.1c-0.9,0.8-1.4,2.6-1.9,3.6c-1.2,3-2.8,5.8-3.1,9
				c-0.4,3.7,2.3,11.2,7.4,9.7c1.4-0.4,2.6-1.5,3.5-2.5c0.9-1,1.7-2.5,2.4-5c0.2-0.6,0.3-1.1,0.5-1.6c0.6-1.6,0.7-2.2,1.1-3.8
				c0.2-0.8,1.4-1.3,2.4-1.7c0.7-0.1,1.2-0.4,2.1-0.8c2.6-1.2,4.5-1.8,6.9-3.5c-1.1,2.9-2.2,5.8-3.5,8.7c-1,2.3-2.5,4.5-1.4,7
				c0.6,1.4,2.3,3.6,3.9,2.1c1.2-1.1,1.2-3,1.6-4.5c1.2,2.1,2.5,4.2,4.7,5.5c1,0.6,2.2,1.2,3.4,1.2c1.8,0,1.9-0.1,3.1-0.5
				c2.2-0.8,4.2-1.9,6.1-3.4c0.3-0.2,1-0.9,1.1-1.6C169.5,39.5,169.2,38.2,168.9,38.1"/>
			<path id="Fill-10" class="st3" d="M43.8,59.2c3.8,0.2,7.6-0.4,11.3-0.1c0.8,0.1,0.8-1.2,0-1.3c-3.8-0.3-6.6,0.4-11.3,0.1
				C43,57.9,43,59.2,43.8,59.2"/>
			<path id="Fill-12" class="st3" d="M114.5,58.9c3.8,0.2,7.4-0.3,11.2,0c0.8,0.1,0.8-1.2,0-1.3c-3.8-0.3-7.6,0.3-11.3,0.1
				c-0.8,0-0.9,1.1-0.1,1.1"/>
			<path id="Fill-14" class="st3" d="M68.1,58.8c0.1,0.1,0.2,0.1,0.2,0.3c0,0,0,0,0,0l0.8,1.2h0.1h0.1c0.2,0,0.3,0,0.4,0.1
				c0.1,0.1,0.1,0.2,0.1,0.4c0,0.2,0,0.3-0.1,0.4c-0.1,0.1-0.2,0.1-0.5,0.1h-0.6c-0.2,0-0.4-0.1-0.5-0.3l0,0L67,59.3
				c0-0.1-0.1-0.1-0.2-0.2c-0.1,0-0.1-0.1-0.2-0.1h-0.4v1.3h0.1c0.2,0,0.3,0,0.4,0.1c0.1,0.1,0.1,0.2,0.1,0.4c0,0.2,0,0.3-0.1,0.4
				c-0.1,0.1-0.2,0.1-0.5,0.1H65c-0.2,0-0.4,0-0.5-0.1c-0.1-0.1-0.1-0.2-0.1-0.4c0-0.2,0-0.3,0.1-0.4c0.1-0.1,0.2-0.1,0.4-0.1H65
				v-3.6h-0.1c-0.2,0-0.3,0-0.4-0.1c-0.1-0.1-0.1-0.2-0.1-0.4c0-0.2,0-0.3,0.1-0.4c0.1-0.1,0.2-0.1,0.5-0.1h2.2
				c0.7,0,1.2,0.1,1.5,0.4c0.3,0.3,0.5,0.7,0.5,1.2c0,0.4-0.1,0.7-0.3,0.9C68.8,58.5,68.5,58.7,68.1,58.8z M66.2,56.8v1.4h0.6
				c0.4,0,0.7-0.1,0.8-0.2c0.2-0.1,0.2-0.3,0.2-0.5c0-0.2-0.1-0.4-0.2-0.5c-0.1-0.1-0.4-0.2-0.7-0.2H66.2z"/>
			<path id="Fill-16" class="st3" d="M73.3,56.8v1.1h1.6v-1.1h-0.1c-0.2,0-0.3,0-0.4-0.1c-0.1-0.1-0.1-0.2-0.1-0.4
				c0-0.2,0-0.3,0.1-0.4c0.1-0.1,0.2-0.1,0.5-0.1h1.2c0.2,0,0.4,0,0.5,0.1c0.1,0.1,0.1,0.2,0.1,0.4c0,0.2,0,0.3-0.1,0.4
				c-0.1,0.1-0.2,0.1-0.4,0.1h-0.1v3.6h0.1c0.2,0,0.3,0,0.4,0.1c0.1,0.1,0.1,0.2,0.1,0.4c0,0.2,0,0.3-0.1,0.4
				c-0.1,0.1-0.2,0.1-0.5,0.1h-1.2c-0.2,0-0.4,0-0.5-0.1c-0.1-0.1-0.1-0.2-0.1-0.4c0-0.2,0-0.3,0.1-0.4c0.1-0.1,0.2-0.1,0.4-0.1h0.1
				V59h-1.6v1.4h0.1c0.2,0,0.3,0,0.4,0.1c0.1,0.1,0.1,0.2,0.1,0.4c0,0.2,0,0.3-0.1,0.4c-0.1,0.1-0.2,0.1-0.5,0.1h-1.2
				c-0.2,0-0.4,0-0.5-0.1c-0.1-0.1-0.1-0.2-0.1-0.4c0-0.2,0-0.3,0.1-0.4c0.1-0.1,0.2-0.1,0.4-0.1h0.1v-3.6H72c-0.2,0-0.3,0-0.4-0.1
				c-0.1-0.1-0.1-0.2-0.1-0.4c0-0.2,0-0.3,0.1-0.4c0.1-0.1,0.2-0.1,0.5-0.1h1.2c0.2,0,0.4,0,0.5,0.1c0.1,0.1,0.1,0.2,0.1,0.4
				c0,0.2,0,0.3-0.1,0.4C73.7,56.8,73.5,56.8,73.3,56.8L73.3,56.8z"/>
			<path id="Fill-18" class="st3" d="M81.2,55.6c0.8,0,1.4,0.3,1.9,0.8c0.5,0.6,0.8,1.3,0.8,2.2c0,0.9-0.3,1.6-0.8,2.2
				c-0.5,0.6-1.1,0.8-1.9,0.8c-0.8,0-1.4-0.3-1.9-0.8c-0.5-0.6-0.8-1.3-0.8-2.2c0-0.9,0.3-1.6,0.8-2.2
				C79.8,55.9,80.4,55.6,81.2,55.6 M81.2,56.7c-0.4,0-0.7,0.2-1,0.5c-0.2,0.3-0.4,0.8-0.4,1.4c0,0.6,0.1,1.1,0.4,1.4
				c0.2,0.3,0.6,0.5,1,0.5c0.4,0,0.7-0.2,1-0.5c0.2-0.3,0.4-0.8,0.4-1.4c0-0.6-0.1-1.1-0.4-1.4C81.9,56.9,81.6,56.7,81.2,56.7"/>
			<path id="Fill-20" class="st3" d="M86.3,60.4v-3.6h-0.1c-0.2,0-0.3,0-0.4-0.1c-0.1-0.1-0.1-0.2-0.1-0.4c0-0.2,0-0.3,0.1-0.4
				c0.1-0.1,0.2-0.1,0.5-0.1h0.9h0.3c0.7,0,1.2,0,1.5,0.1c0.3,0.1,0.6,0.2,0.8,0.3c0.4,0.2,0.7,0.6,0.9,1c0.2,0.4,0.3,0.9,0.3,1.5
				c0,0.6-0.1,1.1-0.4,1.6c-0.2,0.4-0.6,0.8-1,1c-0.2,0.1-0.4,0.2-0.7,0.2c-0.3,0-0.6,0.1-1.2,0.1h-0.5h-0.9c-0.2,0-0.4,0-0.5-0.1
				c-0.1-0.1-0.1-0.2-0.1-0.4c0-0.2,0-0.3,0.1-0.4C85.9,60.4,86.1,60.4,86.3,60.4L86.3,60.4z M87.5,56.8v3.6h0.3
				c0.6,0,1-0.1,1.3-0.4c0.3-0.3,0.4-0.8,0.4-1.4c0-0.6-0.1-1.1-0.4-1.4c-0.3-0.3-0.7-0.4-1.3-0.4c-0.1,0-0.1,0-0.2,0
				C87.6,56.8,87.6,56.8,87.5,56.8z"/>
			<path id="Fill-22" class="st3" d="M96.8,56.8h-2.2V58h0.8v-0.1c0-0.2,0-0.3,0.1-0.4c0.1-0.1,0.2-0.1,0.4-0.1c0.1,0,0.3,0,0.4,0.1
				c0.1,0.1,0.1,0.2,0.1,0.3c0,0,0,0,0,0.1c0,0,0,0.1,0,0.1v1c0,0.2,0,0.4-0.1,0.5c-0.1,0.1-0.2,0.1-0.4,0.1c-0.2,0-0.3,0-0.4-0.1
				c-0.1-0.1-0.1-0.2-0.1-0.4V59h-0.8v1.4h2.2v-0.6c0-0.2,0-0.4,0.1-0.5c0.1-0.1,0.2-0.1,0.4-0.1c0.2,0,0.3,0,0.4,0.1
				c0.1,0.1,0.1,0.2,0.1,0.5V61c0,0.2,0,0.3-0.1,0.3c-0.1,0.1-0.2,0.1-0.4,0.1h-3.9c-0.2,0-0.4,0-0.5-0.1c-0.1-0.1-0.1-0.2-0.1-0.4
				c0-0.2,0-0.3,0.1-0.4c0.1-0.1,0.2-0.1,0.4-0.1h0.1v-3.6h-0.1c-0.2,0-0.3,0-0.4-0.1c-0.1-0.1-0.1-0.2-0.1-0.4c0-0.2,0-0.3,0.1-0.4
				c0.1-0.1,0.2-0.1,0.4-0.1h3.9c0.2,0,0.3,0,0.4,0.1c0.1,0.1,0.1,0.2,0.1,0.4v1.1c0,0.2,0,0.4-0.1,0.5c-0.1,0.1-0.2,0.1-0.4,0.1
				c-0.2,0-0.3,0-0.4-0.1c-0.1-0.1-0.1-0.3-0.1-0.5V56.8z"/>
			<path id="Fill-24" class="st3" d="M103.8,55.8c0-0.1,0.1-0.2,0.2-0.2c0.1,0,0.2-0.1,0.3-0.1c0.2,0,0.3,0,0.4,0.1
				c0.1,0.1,0.1,0.2,0.1,0.4l0,0.9v0.1c0,0.2,0,0.3-0.1,0.4c-0.1,0.1-0.2,0.1-0.4,0.1c-0.2,0-0.4-0.1-0.5-0.4c0,0,0-0.1,0-0.1
				c-0.1-0.2-0.2-0.3-0.4-0.4c-0.2-0.1-0.4-0.2-0.6-0.2c-0.3,0-0.5,0.1-0.7,0.2c-0.2,0.1-0.3,0.3-0.3,0.5c0,0.3,0.4,0.5,1.2,0.7
				c0.1,0,0.2,0.1,0.3,0.1c0.6,0.1,1.1,0.3,1.3,0.6c0.3,0.3,0.4,0.7,0.4,1.1c0,0.6-0.2,1-0.6,1.4c-0.4,0.3-1,0.5-1.7,0.5
				c-0.3,0-0.5,0-0.8-0.1s-0.4-0.1-0.7-0.2c-0.1,0.1-0.1,0.1-0.2,0.2c-0.1,0-0.2,0.1-0.3,0.1c-0.2,0-0.3,0-0.4-0.1
				c-0.1-0.1-0.1-0.2-0.1-0.4l0-1.1v-0.1c0-0.2,0-0.4,0.1-0.4c0.1-0.1,0.2-0.1,0.4-0.1c0.2,0,0.4,0.2,0.5,0.5c0,0.1,0.1,0.1,0.1,0.2
				c0.1,0.2,0.3,0.4,0.5,0.6c0.2,0.1,0.5,0.2,0.8,0.2c0.3,0,0.5-0.1,0.7-0.2c0.2-0.1,0.2-0.3,0.2-0.5c0-0.3-0.4-0.6-1.1-0.8
				c-0.2-0.1-0.4-0.1-0.5-0.1c-0.6-0.2-1-0.4-1.3-0.6c-0.2-0.2-0.4-0.6-0.4-1c0-0.5,0.2-1,0.6-1.3c0.4-0.3,0.9-0.5,1.6-0.5
				c0.2,0,0.4,0,0.6,0.1C103.4,55.7,103.6,55.8,103.8,55.8"/>
		</g>
	</g>
</g>
</svg>
