<svg id="圖層_1" data-name="圖層 1" xmlns="http://www.w3.org/2000/svg" viewBox="0 0 224 271"><defs><style>.cls-1{fill:#3a4b40;}.cls-2{fill:#f1a200;}</style></defs><title>工作區域 1</title><path class="cls-1" d="M211.6,132.54a3.27,3.27,0,0,1-.81-.93,15.92,15.92,0,0,1-.67-1.56,7.46,7.46,0,0,0-1.17-2.24,8.59,8.59,0,0,0-2.57-2.28,11.1,11.1,0,0,0-2.26-.75,17.06,17.06,0,0,1-1.87-.54.81.81,0,0,0-.89.22,2.12,2.12,0,0,1-2,.72c-2.45-.38-4.74.33-7.43,1.51-.25.11-.52.21-.78.31l-.83.34a11.54,11.54,0,0,1-2.3.73,6.73,6.73,0,0,0-2.6,1,1.55,1.55,0,0,1-2,0,.94.94,0,0,0-.12.14l-.08.1a1.86,1.86,0,0,1-1.39.93,3.36,3.36,0,0,0-1.74,1,5.08,5.08,0,0,1-2.89,1.45A8.07,8.07,0,0,1,172.4,135l-.56.11a6.47,6.47,0,0,0-5.17,4.57c-.48,1.48-.6,2.43.15,3.21A16.16,16.16,0,0,0,168,144a14,14,0,0,1,1.89,1.88,3.69,3.69,0,0,1,2.56,1.06l.12.1c1.3,1,2.41,1.82,3.84,1.84a3.7,3.7,0,0,1,2.53,1.23,4.74,4.74,0,0,1,.48.59,2.11,2.11,0,0,0,.26.33,5.22,5.22,0,0,1,2.75,2.68,7.05,7.05,0,0,0,.87,1.27,18.21,18.21,0,0,0,3.21,2.74,1.51,1.51,0,0,1,1.13,1.19,1.58,1.58,0,0,1-1.11,1.73,1.93,1.93,0,0,0-.6.54l-.23.25a3.76,3.76,0,0,1-2.64,1.22,9.91,9.91,0,0,1-3.54-.35,18.8,18.8,0,0,0-6.39-.52h-.53c-1.32.18-1.63-.6-1.7-.94a.46.46,0,0,0,0-.15l-.43,0c-.22,0-.44,0-.65-.08a5.9,5.9,0,0,1-2.93-1.51c-1.4-1.32-2.71-2.57-4.5-3a1.92,1.92,0,0,1-1-.62,16.35,16.35,0,0,0-1.13-1.27,12.13,12.13,0,0,1-2.15-2.83l-.05-.09c-.43-.86-.53-.88-.84-.82a1.33,1.33,0,0,1-1.49-.87,13.71,13.71,0,0,1-.75-1.33,4.88,4.88,0,0,0-1.66-2.13,1.72,1.72,0,0,1-.94-1.48,1.42,1.42,0,0,1,.32-.87,7.27,7.27,0,0,1-1.16-1.53,8,8,0,0,0-.51-.78s-.6-.77-.87-.61a1.88,1.88,0,0,0-1,1.12,1.54,1.54,0,0,0,.34,1.21,3.55,3.55,0,0,0,.23.31,4.3,4.3,0,0,1,.86,1.67,7.52,7.52,0,0,0,1.92,3.65l.1.1a4.83,4.83,0,0,1,1.53,2.58,3.77,3.77,0,0,0,2.16,3,2.78,2.78,0,0,1,1.56,3.18.9.9,0,0,0,.18.78A5.22,5.22,0,0,1,159.2,161a3.65,3.65,0,0,0,1.92,2.14h.18c1.76.06,3.76.13,5.31,1.89a1.14,1.14,0,0,0,.91.29,1.59,1.59,0,0,1,1.51.58,4.19,4.19,0,0,0,2.1,1.25c.23.08.46.16.69.26a17.5,17.5,0,0,0,4.36,1.34c.93.11,1.85.23,2.77.37,1.32.18,2.68.38,4,.48a5.63,5.63,0,0,0,1.06-.05,9.36,9.36,0,0,1,1.09-.07,3.56,3.56,0,0,1,1.85.45,3.89,3.89,0,0,1,1.21-.22,2.32,2.32,0,0,0,.46,0c.93-.18,1.89-.32,2.84-.46,2.93-.44,5.7-.85,8.11-2.51,1.77-1.22,2.87-2.05,2.9-3.67a3.62,3.62,0,0,1,0-.57v-.19a2.35,2.35,0,0,1-2-1.89,1.11,1.11,0,0,0-1.08-.9,3.17,3.17,0,0,1-1.5-.63,21.09,21.09,0,0,0-5.1-2.8,21.42,21.42,0,0,1-5.88-3.37,1.9,1.9,0,0,0-.64-.33,17,17,0,0,1-3.35-1.72,13.26,13.26,0,0,1-1.16-.83,6.51,6.51,0,0,0-1.79-1.11,6.56,6.56,0,0,1-4.15-4.54,2,2,0,0,0-.5-.9,2.4,2.4,0,0,1-.77-2.11,2.48,2.48,0,0,1,1.41-1.8.65.65,0,0,0,.35-.41,6.13,6.13,0,0,1,1.43-2.15l.08-.1a11.49,11.49,0,0,1,3.68-2.51c.41-.21.82-.42,1.23-.65a10.36,10.36,0,0,1,2.81-1.06l.89-.22a11.73,11.73,0,0,1,4.1-.56,2.3,2.3,0,0,1,2.43,0,11.27,11.27,0,0,1,2,1.27,3.69,3.69,0,0,0,2.75,1,13.13,13.13,0,0,1,6.1,1l.13,0,.07-.07a2.14,2.14,0,0,1,2.53-.54c.26.11.54.2.81.3a9,9,0,0,1,1.44.57,1.34,1.34,0,0,0,1.83-.37,4.5,4.5,0,0,0,1.28-2,2.21,2.21,0,0,0-.27-.25"/><path class="cls-1" d="M128.66,158.24c.18.58.36,1.15.56,1.71.54,1.58,1.25,1.83,1.79,1.89a4.48,4.48,0,0,1,2.2.74,1.29,1.29,0,0,0,1,0,2.83,2.83,0,0,0,1.7-1.44,4.17,4.17,0,0,0,0-2.47,6.26,6.26,0,0,1-.1-3.06l-.05-.06a5.28,5.28,0,0,1-1.54-3.24l-.12-.09a1.66,1.66,0,0,0-.21-.16,2.25,2.25,0,0,1-.86-1,36.51,36.51,0,0,0-2.06-4.29l-.43-.8c-.65-1.22-1.18-1.47-1.83-1.47h-.14s-.05.05-.13.2a4.29,4.29,0,0,0-.33,2.28l0,.58a14.76,14.76,0,0,1-.12,2.78,13.86,13.86,0,0,0-.12,1.63,10.46,10.46,0,0,1-.4,3,32.64,32.64,0,0,1,1.15,3.25"/><path class="cls-1" d="M147,252.71a.88.88,0,0,0,.46-1c-.08-.69-.34-1.14-1.48-1.51a12.23,12.23,0,0,0-1.19-.31,6.93,6.93,0,0,1-3.49-1.55,3.12,3.12,0,0,0-.58-.12,3.5,3.5,0,0,1-1.79-.77c-.39-.31-.81-.59-1.26-.88a9.08,9.08,0,0,1-2.94-2.63,4.47,4.47,0,0,1-2-.53,2.28,2.28,0,0,0-1-.31,12.33,12.33,0,0,1-5.29-.78l-.54-.16c-.5-.15-1-.27-1.57-.38a10.91,10.91,0,0,1-3.7-1.29c-.51-.32-1-.68-1.42-1a8.06,8.06,0,0,0-2.83-1.62,5.65,5.65,0,0,1-2.7-1.93l-.51-.54c-.09-.09-.22-.12-.52-.19a2.5,2.5,0,0,1-1.34-.66,10,10,0,0,1-2.24-4.69,2,2,0,0,1,.89-2.15,14.44,14.44,0,0,0,1.36-1,10.27,10.27,0,0,1,3.28-1.93,6.45,6.45,0,0,0,2.33-1.61,9.91,9.91,0,0,1,2.49-1.81l.43-.18a3,3,0,0,0,.78-.38,6.82,6.82,0,0,1,1.65-1.94,4.23,4.23,0,0,0,1.36-1.71A6.75,6.75,0,0,1,125,215l.3-.37a6,6,0,0,0,1.53-4.55l0-.3.14-.27c.07-.13,0-.3-.32-.87a4.38,4.38,0,0,1-.66-1.6,3.62,3.62,0,0,1-1.42-.69l-.3-.2a2.42,2.42,0,0,0-2.43,0,2.2,2.2,0,0,0-1.26,1.82,3.93,3.93,0,0,1-1.13,2.78l-.27.27c-1.15,1.17-2.35,2.38-3.63,3.48-.3.25-.34.35-.32.79a9,9,0,0,0,.11,1,4.71,4.71,0,0,1-.81,4.11c-.36.41-.68.85-1,1.32l-.54.72a2.19,2.19,0,0,1-1.57,1.08,1.66,1.66,0,0,1-1.17-.43c-.81.35-2.43.92-3.45-.64a3.3,3.3,0,0,1-2.18-1.35,4.14,4.14,0,0,0-.35-.38,2.1,2.1,0,0,1-2-.06l-.21-.09a6.35,6.35,0,0,1-2.88-2.23s0-.07-.33-.13a2.75,2.75,0,0,0-2.46.59,3.23,3.23,0,0,0-1.13,2.58c0,.47.08.94.12,1.41a13.49,13.49,0,0,1-.07,4.52,7.56,7.56,0,0,1,1.27,6.17,16.06,16.06,0,0,0-.27,3.11c.1,2.12,0,4.25,0,6.3,0,1.53-.11,3.11-.09,4.66,0,.33,0,.67.07,1a6.71,6.71,0,0,1-.09,2.56,3.25,3.25,0,0,0,0,1.83,2.81,2.81,0,0,1-1.64,3.65,2.68,2.68,0,0,0-1,.89c-.64.83-.6,1.22.18,2a16.22,16.22,0,0,1,2.17,2.6,7.14,7.14,0,0,1,.41.65c.49.83.72,1.15,1.29,1.16a3,3,0,0,0,2.87-2.48,61.37,61.37,0,0,0,.47-11.09c0-.35,0-.71-.06-1.06a6.71,6.71,0,0,1,.68-4.43,3.55,3.55,0,0,1-.08-2.33,10.2,10.2,0,0,0,.19-2.44,14.38,14.38,0,0,1,.15-2.51,3.57,3.57,0,0,1,1.3-2.34,1.79,1.79,0,0,1,2.25.13.94.94,0,0,0,.18.12l.56.33c.43.25.86.5,1.28.77l.17.11a14.16,14.16,0,0,1,4,3.36c.23.31.43.65.63,1,.56.95.92,1.49,1.72,1.66a2.38,2.38,0,0,1,1.15.7l.18.17c.8.68,1.55,1.41,2.28,2.12s1.27,1.25,1.93,1.82c.81.69,1.68,1.35,2.53,2a38.17,38.17,0,0,1,3.29,2.65,2.16,2.16,0,0,0,.63.32,3.13,3.13,0,0,1,1.59,1.12c1.47,2.22,3.75,2.41,6.38,2.62l.57,0a6.17,6.17,0,0,0,2.8-.31,20.35,20.35,0,0,1,4.47-1.17,12.8,12.8,0,0,0,5.32-2.08"/><path class="cls-1" d="M97.2,215.76c1.25-.21,2.54-.42,3.77-.72a31.48,31.48,0,0,1,4-.6,17.75,17.75,0,0,0,5.9-1.31,1.71,1.71,0,0,1,1.31-.07,10.58,10.58,0,0,1,.5-3.33,41.42,41.42,0,0,0,1.42-7.11c0-.37.09-.73.13-1.1a12.09,12.09,0,0,1,1.41-5.15c.88-1.41,1.72-2.91,2.51-4.47s1.57-3.32,1-5a6.49,6.49,0,0,0-4.49-3.77c-2.16-.65-4.48-.14-6.88,1.51a8.08,8.08,0,0,1-4.92,1.17,12.41,12.41,0,0,0-2.06.12,1.58,1.58,0,0,1-1.26-.44,2.37,2.37,0,0,0-2-.64,1.9,1.9,0,0,1-2-1.35,1.79,1.79,0,0,1,.83-2,8.22,8.22,0,0,1,1.17-.72l.2-.11a2,2,0,0,0,1-1.11.47.47,0,0,0,0-.4l-.29-.44c-.9-1.41-1.76-2.73-3.18-3.23a3.34,3.34,0,0,0-2.86,0,2.67,2.67,0,0,0-.84,2.23l0,.3-.1.28a6.81,6.81,0,0,1-1.55,2.85l-.29.27c-.24.22-.48.45-.5.6a8,8,0,0,1-3.4,5.66l-.32.24c-.13.1-.33.24-.42.33a1.63,1.63,0,0,1-.56,1.43,1.8,1.8,0,0,1-1.69.14,22,22,0,0,1-3.3-1.22c-.48-.23-.77-.14-1.55.5-.11.09-.41.33-.09,1,.16.35.31.7.46,1,.34.78.65,1.51,1,2.21a4.28,4.28,0,0,1,0,4,1.89,1.89,0,0,0,.07,2l.43.68a35.64,35.64,0,0,0,2.4,3.39c.15.19.3.36.46.54,1,1.14,2.24,2.55,1.61,4.74,0,.13,0,.22.06.3a38.17,38.17,0,0,0,.65,4.4l0,.14a1.71,1.71,0,0,1-.29,1.8,1.48,1.48,0,0,1-1.35.28,2.82,2.82,0,0,1-2.13,1.25,3.31,3.31,0,0,0-1.8,1l.44.2a5.27,5.27,0,0,1,2.31,1.66,11.19,11.19,0,0,1,3.69-.52,6.76,6.76,0,0,0,3.09-1,19.59,19.59,0,0,1,4.44-1.78c1.3-.31,2.62-.53,3.9-.74m-6.33-2.08h-.13a1.93,1.93,0,0,1-1.58-.69,1.87,1.87,0,0,1-.26-1.72,4.14,4.14,0,0,0,.06-1.47,6.62,6.62,0,0,1,.06-1.87,4,4,0,0,1-.52-3.23c0-.25.07-.49.09-.73a2.61,2.61,0,0,0-.16-.88c-.06-.24-.13-.48-.17-.72a27.22,27.22,0,0,0-.85-3.24,22.07,22.07,0,0,1-1.08-4.88c-1.58-1.88-.6-3.89-.12-4.87a3.54,3.54,0,0,1,3-1.85,2.63,2.63,0,0,1,2.44,1.26,4.71,4.71,0,0,0,1.61,1.48,7.78,7.78,0,0,1,1.61,1.31s.14,0,.29-.05a10.82,10.82,0,0,1,2.75-.17,9.4,9.4,0,0,0,2-.06l.26-.05a1.43,1.43,0,0,0,.28,0,12.48,12.48,0,0,1,4.72-1.39l1.3-.22a2.8,2.8,0,0,0,.68-.28,4.37,4.37,0,0,1,1.31-.47,2.16,2.16,0,0,1,1.92.39,2,2,0,0,1,.5,1.74c0,.26,0,.53,0,.78s0,.22,0,.33a9.7,9.7,0,0,1-.62,4.48l-.09.32c.13,2.3-1.39,3.51-2.73,4.59-1,.77-1.34,2.05-1.18,3.84.26,2.85-1,4.88-3.59,5.56-1.6.43-3.25.74-4.84,1a11.52,11.52,0,0,0-2.14.73,14.83,14.83,0,0,1-2,.73,11.65,11.65,0,0,1-2.56.3Z"/><path class="cls-1" d="M80.14,249.5a13.37,13.37,0,0,1,1.92-2,8.62,8.62,0,0,0,2-2.28,10.78,10.78,0,0,1,1.72-2.49,8.75,8.75,0,0,0,1.29-2.1l.42-.84a22.87,22.87,0,0,0,1.84-4.5,2.83,2.83,0,0,1,.77-1.45,5.55,5.55,0,0,0,1.44-3.07c.07-.33.15-.65.23-.95,0-1.49-.43-2.56-1.15-2.81s-1.34-.44-2.16-.66c-1.49-.4-1.52-.41-2.12,1.06a3.23,3.23,0,0,1-2.36,2l-.8.17a4.94,4.94,0,0,0-1.83.61,2.49,2.49,0,0,0-.36.3,2.44,2.44,0,0,1-2.09.85,6.54,6.54,0,0,1-2.75,1.94c-.41.2-.79.38-1.14.59a21.85,21.85,0,0,1-3.54,1.67,26,26,0,0,0-2.72,1.22c-.52.28-.52.35-.56.81s.24.84,1,1.43c.2.17.4.33.58.51a2.9,2.9,0,0,0,4,.38c1.74-1.11,3.33-2.16,4.85-3.22a7.51,7.51,0,0,1,2-.93,3,3,0,0,1,1-.2,1.51,1.51,0,0,1,1.29.66,2.12,2.12,0,0,1,0,2.34c-.17.29-.32.57-.48.85a10.9,10.9,0,0,1-2.78,3.68c-.75.58-.88.9-.9,1a22.69,22.69,0,0,1-2.22,5c-.29.53-.58,1.06-.85,1.6-.58,1.13-.15,1.5,0,1.64a1.35,1.35,0,0,0,1.78-.19,13.43,13.43,0,0,0,2.78-2.62"/><path class="cls-1" d="M93.07,200.49a3.44,3.44,0,0,0-1,1.61,5.59,5.59,0,0,1-.34,1.39h.6a33.81,33.81,0,0,0,8.77-1.49l.52-.13c.91-.22,1.48-.39,1.78-1a2.37,2.37,0,0,0,0-2.32,2.42,2.42,0,0,0-3-.62l-.62.29c-1.89.9-3.85,1.83-6.21,1.58-.17.23-.35.45-.53.67"/><path class="cls-1" d="M107.16,92.84a4.47,4.47,0,0,1,.56-2.44,11.13,11.13,0,0,0,1.13-2.23,9.19,9.19,0,0,1,.86-1.62,5.32,5.32,0,0,0,.78-1.59,12.6,12.6,0,0,1,.72-2.07,13.47,13.47,0,0,0,.57-1.56,12,12,0,0,1,1-2.45,8.93,8.93,0,0,0,1-2.39,2.85,2.85,0,0,0,0-.67,3.74,3.74,0,0,1,.33-1.8,14.33,14.33,0,0,0,1.09-3.43,24.67,24.67,0,0,1,.71-2.64c0-.07.06-.21,0-.28a.55.55,0,0,0-.47-.11,2.1,2.1,0,0,0-1.75,1.21A31.08,31.08,0,0,1,110,75a13.65,13.65,0,0,0-.79,1.19,10.16,10.16,0,0,1-1.76,2.29.42.42,0,0,1,0,.1,1.75,1.75,0,0,1-.12.32,7.81,7.81,0,0,1-2.41,3,1.45,1.45,0,0,1-1.43.32,1.27,1.27,0,0,1-.8-.93,1.24,1.24,0,0,0-.12-.32,2.85,2.85,0,0,1-.26-1.5c.07-.51.12-1,.16-1.55a16.28,16.28,0,0,1,.65-3.8,15.58,15.58,0,0,1,.73-1.75c.15-.32.3-.65.44-1a44.88,44.88,0,0,0,2.47-7.55c.05-.23.1-.47.16-.7a4.17,4.17,0,0,0,.14-2.35c-.14-.39-.26-.78-.39-1.18a14.23,14.23,0,0,0-1.77-4,9.61,9.61,0,0,1-1.13-2.36A6.18,6.18,0,0,0,102.57,51a2,2,0,0,1-.6-1.9,1.88,1.88,0,0,1,1.48-1.27s.1-.13.09-.36c0-.76-.14-.94-.83-1.14-.23-.06-.46-.14-.68-.22-.64-.24-.83-.28-1.1-.12l-.39.21a2.8,2.8,0,0,0-1.33,1.08l-.14.32a9.1,9.1,0,0,0-.78,2.09l0,.26c-.4,2.16-.78,4.21.1,6.18A11.43,11.43,0,0,1,99,58.2,7.71,7.71,0,0,0,99.54,60a6.43,6.43,0,0,1,.84,3.52c0,2.7-.13,3.1-1.36,5.16a2.08,2.08,0,0,0-.32,1.1A24.55,24.55,0,0,1,98.59,73c0,.41-.08.82-.12,1.24-.07.83-.15,1.68-.29,2.53A8.65,8.65,0,0,0,98,79.5c.07.47.17.93.28,1.39a9.93,9.93,0,0,1,.35,3.76,6.32,6.32,0,0,1,1.44,2.91,6,6,0,0,0,.59,1.58,6,6,0,0,1,.91,2.74,3.57,3.57,0,0,0,1.32,2.44,4.15,4.15,0,0,1,.58.76A2.4,2.4,0,0,0,106,96.2c.35-.07.89-.18,1.11-1.72a.85.85,0,0,0,0-.16,3.11,3.11,0,0,1,0-.58,6.25,6.25,0,0,0,0-.9"/><path class="cls-1" d="M102.16,39.27a2.21,2.21,0,0,0,1.49-.84,6.11,6.11,0,0,1,.73-1.81l.28-.53a6.87,6.87,0,0,1,5.64-3.94c1.62-.25,2.82-.53,3.43-1.85a4.34,4.34,0,0,0,.24-.88,6.72,6.72,0,0,1,.25-1A2,2,0,0,0,113,25.7c-.57-.22-1.13-.47-1.69-.71a11.65,11.65,0,0,0-5.46-1.43,2.3,2.3,0,0,1-1.13-.26l-.17-.07a.86.86,0,0,0-.5-.07,5.8,5.8,0,0,1-4.29-.86,9.28,9.28,0,0,1-.83-.56,4.5,4.5,0,0,0-1-.62.85.85,0,0,0-.23,0,1.54,1.54,0,0,0-1,.39c-.23.2-.3.38-.29.44a3.38,3.38,0,0,0,1.25,2l3.28,2.59c.57.44,1.14.88,1.7,1.33a2.82,2.82,0,0,1,1.09,2.91,4,4,0,0,0,0,1.85,2.12,2.12,0,0,1-.1,1l0,.1a10.9,10.9,0,0,1-2.14,4.34c-.07.07-.24.27.09.86.07.13.16.26.65.29"/><path class="cls-1" d="M168.81,78.93c.45.16.9.33,1.34.51a9,9,0,0,0,4.49,1,1.22,1.22,0,0,0,1-.48,1.13,1.13,0,0,0-.13-1,14.11,14.11,0,0,1-.88-2.1,1.28,1.28,0,0,0-.25-.35,2.26,2.26,0,0,1-.65-1.55,2.28,2.28,0,0,0-1.34-2.19,1,1,0,0,1-.45-.23l-.15-.15a1.92,1.92,0,0,1-1.19-.77l-.45-.31a5.19,5.19,0,0,1-1.89-1.34l0,0a2,2,0,0,1-1.17-.61h0a1.49,1.49,0,0,1-.65-.33l-1.08-.29-.53-.11a4.35,4.35,0,0,1-1.88-.71l-.29-.18a23.45,23.45,0,0,1-5.79-1.21,4.62,4.62,0,0,1-1.06-.47,9.87,9.87,0,0,0-5.6-1.29,4,4,0,0,1-2.56-.72l-.2-.19-.45-.59-.08-.39c0-.5-.11-1-.19-1.54a8.88,8.88,0,0,1,0-3.88,4.8,4.8,0,0,0,0-1.47c0-.2,0-.41,0-.61a4.44,4.44,0,0,0-.08-.61,4,4,0,0,1,.18-2.39c0-.06,0-.15-.06-.22s-.07-.24-.1-.35a6.06,6.06,0,0,1,.66-5.11l.18-.19.4-.33a3.1,3.1,0,0,1,1.19-.65l.19-.11a3.82,3.82,0,0,1,2.51-1.44,10.18,10.18,0,0,0,1.77-.63c.47-.19,1-.4,1.47-.56a14.73,14.73,0,0,0,1.89-.77,9.69,9.69,0,0,1,4.48-1.22.74.74,0,0,0,.55-.23,2.14,2.14,0,0,0,.48-1.55,6.82,6.82,0,0,0-.83-2.65c-.1-.22-.21-.44-.3-.66s-.55-.47-1.38-.63c-1.9-.38-3.65-.72-5.38,0a6.62,6.62,0,0,1-.9.28,2.76,2.76,0,0,0-.92.33,5.28,5.28,0,0,1-1.69.7l-.12,0a2.44,2.44,0,0,1-2-.18,2.69,2.69,0,0,1-1.14-1.92,7.27,7.27,0,0,1,.24-3.46,1.36,1.36,0,0,1-.2-1.25,3.07,3.07,0,0,0,.06-1.56,4.58,4.58,0,0,1,.27-2.67,5.37,5.37,0,0,0-.26-5.92,4.77,4.77,0,0,1-.5-1,2.5,2.5,0,0,0-.28-.61,3.17,3.17,0,0,0-1.9-1.54,3.25,3.25,0,0,1-1.27-.7c-.91-.76-1.95-.63-3.34-.17-.89.29-1.12,1.59-.82,2.63A9.37,9.37,0,0,0,141,20.64a6.46,6.46,0,0,1,.84,3.55,11.89,11.89,0,0,0,.08,1.21c0,.33.06.68.08,1a8.59,8.59,0,0,0,.15,1.3,5.68,5.68,0,0,1,0,3.2,5.9,5.9,0,0,1,.58,2.91,8.87,8.87,0,0,0,.05,1.06A4.65,4.65,0,0,1,140,40.05a9.84,9.84,0,0,0-1.77,1,14.67,14.67,0,0,1-1.61,1l-1,.48c-.76.37-1.54.75-2.27,1.19a7.75,7.75,0,0,0-.92.68,11,11,0,0,1-1,.73l-1.07.7a31.67,31.67,0,0,1-5.89,3.25,11.89,11.89,0,0,1-3.22.72,1.59,1.59,0,0,0-1.21.54,1.7,1.7,0,0,0,0,1.44,2.1,2.1,0,0,0,1.7,1.42,3.61,3.61,0,0,1,1,.48,5.59,5.59,0,0,0,3.73,1.19,2.3,2.3,0,0,1,1.4.34c.33.21.65.33,1.29-.24a8.15,8.15,0,0,1,1.92-1.22,7.24,7.24,0,0,0,1.49-.92,4.78,4.78,0,0,1,.63-.45,2.07,2.07,0,0,0,.53-.42,1.75,1.75,0,0,1,2.07-.69,1.42,1.42,0,0,1,.84.76,1.76,1.76,0,0,1-.06,1.37c-.31.8-.63,1.55-.95,2.29l-.47,1-.62.85a1.5,1.5,0,0,1-.61,1.07l-.07.15a3.16,3.16,0,0,1-1.19,1.67l-.26.22a3.44,3.44,0,0,1-1,1.35,1.17,1.17,0,0,1-.26.47l-.18.21a1.46,1.46,0,0,1-.39.76,3.2,3.2,0,0,1-.48.72h0a2.17,2.17,0,0,1-.93,1.46l-.43.62a1.19,1.19,0,0,1-.32.65,1.14,1.14,0,0,1-.53.31l-.26.26a6.2,6.2,0,0,1-.95,2l-.12.13a9.15,9.15,0,0,0-1,1.26,11.23,11.23,0,0,1-1.11,1.43c-.19.19-.37.4-.55.6a5.23,5.23,0,0,1-3.6,2.21,2.11,2.11,0,0,0-1.57,1.09l-.08.13a10,10,0,0,0-1.8,4.16,1.13,1.13,0,0,0,.11.83.87.87,0,0,0,.62.18,9.9,9.9,0,0,0,3.41-.54l.62-.2c2.25-.7,4.37-1.36,5.85-3.1a9,9,0,0,1,1.53-1.34,4.67,4.67,0,0,0,1.48-1.45,13.66,13.66,0,0,1,1.22-1.84c.25-.34.51-.69.74-1a7.53,7.53,0,0,1,5-3.56,3.23,3.23,0,0,1,.61-.06,2,2,0,0,1,1.29.42,1.81,1.81,0,0,1,.65,1.38l0,1.28c0,1.17.08,2.37.07,3.57a25.27,25.27,0,0,1-.22,2.68l-.1.73a17.56,17.56,0,0,0,0,3.07,17.72,17.72,0,0,1,0,3.71,1.78,1.78,0,0,0,0,.64,15.91,15.91,0,0,1,.47,6.33l0,.54A7,7,0,0,0,141,95.7c.14.39.28.77.4,1.17a3.73,3.73,0,0,0,1.13,2,2,2,0,0,1,.7,1.92c0,.23,0,.31.83.62l.13,0c.23.09.4-.2.45-.3a6.32,6.32,0,0,0,.9-3.23,17,17,0,0,1,.4-4.06l.13-.77a16.56,16.56,0,0,0,.37-4,34.18,34.18,0,0,1-.07-4.4,28.91,28.91,0,0,0-.16-4.94,26.18,26.18,0,0,1,.15-7.22,2.1,2.1,0,0,1,.78-1.5,1.85,1.85,0,0,1,1.52-.27A30.85,30.85,0,0,1,153.23,72,23.63,23.63,0,0,1,160,75.5l.21,0a14.1,14.1,0,0,1,5.08,2.35,1.38,1.38,0,0,0,1,.39,4.56,4.56,0,0,1,2,.45l.47.19"/><path class="cls-2" d="M75,119.63a3.35,3.35,0,0,0,2.39-.49c1.07-.55,2.24-.14,3.36.09a9.28,9.28,0,0,0,2.27.48c1,0,1.24-.31,1.17-1.29a.56.56,0,0,1,.7-.63c1.2.28,2.48.2,3.6.84a4.25,4.25,0,0,1,1.07,1c.73.89,1.26,1,2.2.37,1.35-.87,1.76-.84,2.71.42.49.66,1,.4,1.52.16a3.47,3.47,0,0,1,3.67.14,40.84,40.84,0,0,1,5.16,3.71c.49.44,1.15.64,1.6,1.19a2.87,2.87,0,0,1,.73,1.75,2.6,2.6,0,0,0,.83,1.85,1.83,1.83,0,0,1,0,3c-.75.72-.75,1.06,0,1.81a7.32,7.32,0,0,1,1,1.3,2.91,2.91,0,0,1-.42,3.16c-.88,1-2.09,1.7-3,2.68-.44.47-.58.85-.13,1.41a1.57,1.57,0,0,1,0,2.2,7.16,7.16,0,0,0-1.64,3.23,3.37,3.37,0,0,1-.56,1.1,7.59,7.59,0,0,0-1.45,2.52,1.45,1.45,0,0,1-2.58.22c-.32-.48-.64-.51-1-.2-1.06.84-2.35.53-3.54.68a.9.9,0,0,1-.8-1.34A5.06,5.06,0,0,1,95.18,149c.15-.12.28-.23.24-.44s-.23-.17-.38-.2c-.43-.1-.83-.27-1.26-.36a1.48,1.48,0,0,1-.94-2,.79.79,0,0,0-.12-.93A1.83,1.83,0,0,1,93.86,142c.74-.11,1-.45,1-1.25,0-1.19-.48-2.3-.36-3.49,0-.2,0-.43-.28-.48a.45.45,0,0,0-.52.46,2.58,2.58,0,0,1-.87,1.69A5.77,5.77,0,0,1,91.1,140c-.6.27-1.17-.07-1-.69.35-1.3,0-2.81,1.16-3.89.5-.45.23-1.18-.39-1.47a5.94,5.94,0,0,0-.79-.32c-1-.34-1.43,0-1.85,1a25.72,25.72,0,0,0-.71,3.1,1,1,0,0,1-.81.8,1.5,1.5,0,0,0-1.35,1.38c-.1.8-.9.75-1.51.73a2.47,2.47,0,0,1-2.56-1.7c-.28-.77-1.14-.82-1.83-1a3.92,3.92,0,0,1-2.65-2.07,5.89,5.89,0,0,1-.68-1.81c-.12-.83-.83-1.06-1.55-1.17a9.92,9.92,0,0,0-1.09,0c-.91,0-1.72-.18-2.12-1.21a1,1,0,0,0-1.39-.47,6.76,6.76,0,0,0-1.47.68c-.84.66-1.64,0-2.43-.13-1.66-.35-3.06-1.21-3.22-3-.17-2-.3-2.71,2.05-3.26a16.21,16.21,0,0,1,2.64-.84c.09,0,.24-.1.25-.17.12-.74.88-.82,1.26-1.25.63-.71,1.44-1.18,2.09-1.83a7.7,7.7,0,0,1,3.11-1.6,3.25,3.25,0,0,1,.75-.08"/><path class="cls-2" d="M85.29,156.74c-.41.66-.55,1.37-1.13,1.86-.39.33-.78.52-1.18.32s-.94-.5-1-1.08a6.68,6.68,0,0,1,.53-3.49,1.47,1.47,0,0,1,1.72-.84c.43.13.57,0,.74-.36a7.79,7.79,0,0,0,.28-2.62c0-.39-.29-.45-.59-.45-.82,0-1.12-.51-1.32-1.18-.31-1.08.12-2.17,0-3.26-.07-.4,1.49-1.57,1.91-1.53s.63.49.84.83c.08.13,0,.33.12.45.25.34.33.93.85.89s.72-.42.88-.86a1,1,0,0,1,.91-.71.93.93,0,0,1,1,.57,2.57,2.57,0,0,0,.59.82,1.79,1.79,0,0,1,.37,1.89c-.39,1.2-.85,2.38-1.29,3.56a1.27,1.27,0,0,1-.32.52,3.23,3.23,0,0,0-.87,3.23,18.25,18.25,0,0,1,.36,2.09,1,1,0,0,1-1.37,1.14c-.46-.13-1,0-1.34-.49s-.25-.9-.67-1.3"/><path class="cls-2" d="M19.76,156.34c.33-1.12-.08-2.5.54-3.75.24-.48-.09-.76-.45-.93A3.06,3.06,0,0,1,18.38,150a17.85,17.85,0,0,0-1-1.82,2.89,2.89,0,0,1-.44-1.64c0-.34,0-.69.4-.84a.92.92,0,0,1,1,.29,7.78,7.78,0,0,0,1.42,1.2c.36.24.55.08.61-.26A2.24,2.24,0,0,0,20,145c-.33-.42-.61-.9-.13-1.39a1.24,1.24,0,0,1,1.8-.13c.43.34.89.62,1.31,1s.65.5.46,1-.56.41-.93.43c-.92,0-1.09.22-1,1.15a1.66,1.66,0,0,0,1.92,1.58,1,1,0,0,1,1.09.58,1,1,0,0,1-.3,1.28c-.71.45-1.14,1.48-2.28,1.13a.5.5,0,0,0-.63.44,1.35,1.35,0,0,0,.57,1.06c.26.22.48.09.69-.1a3.57,3.57,0,0,0,.28-.27,1.12,1.12,0,0,1,1.33-.39c.5.24.32.75.26,1.13-.12.8,0,1.34,1,1.34a.57.57,0,0,1,.54.49c0,.27-.18.43-.38.55a2.73,2.73,0,0,1-2.12.57,1.19,1.19,0,0,0-1.43.67c-.5.92-.9,1.14-1.66.92s-.52-.95-.61-1.67"/><path class="cls-2" d="M31.4,110.53c.08-.4-.14-1,.19-1.47,1.08-1.66,2.54-2.28,4.26-1.29.64.36.82.1,1-.35s.41-1.27,1.22-1.27a2,2,0,0,1,1.81,1.22c.54.9.64,2,1.16,2.85.17.28-.56,1-1.05,1.1a3.25,3.25,0,0,1-2.82-.83.61.61,0,0,0-1,.48,5.21,5.21,0,0,1-.27,2.07,1.43,1.43,0,0,1-1.71,1c-1.92-.34-2.94-1.05-2.78-3.48"/><path class="cls-2" d="M36.4,157.26a1,1,0,0,1-.42.65c-.64.48-1.26,1.08-2.19.75a.93.93,0,0,0-.87.19c-.21.13-.5.31-.72.14a.65.65,0,0,1-.14-.79,3.13,3.13,0,0,0,.12-.53c.12-.62-.16-.89-.78-.69a4,4,0,0,0-1.84,1.07c-1.1,1.21-2.73,1.67-3.87,2.81a1,1,0,0,1-.35.16c-.52.2-.72,0-.74-.54a1.63,1.63,0,0,1,.81-1.36c1.38-1,2.46-2.34,4-3.1a3.35,3.35,0,0,1,3.44.34c.25.21.42.09.6-.1a2.3,2.3,0,0,1,.89-.6,1.56,1.56,0,0,1,2,1.6"/><path class="cls-2" d="M24.54,122.77a1.21,1.21,0,0,1-.55.94.82.82,0,0,1-.86-.17,14.33,14.33,0,0,0-2.3-1.44,1.19,1.19,0,0,1-.44-2c.16-.18.37-.36.61-.28,1.44.49,2.78,1.11,3.43,2.64a3.3,3.3,0,0,1,.11.34"/><path class="cls-2" d="M17.79,151.72c.8.09,1.37.58,1.31,1.05a.68.68,0,0,1-.89.63,1.17,1.17,0,0,1-1-1.1c-.05-.47.37-.54.6-.58"/><path class="cls-2" d="M79.59,153.54c-.24-.31-.74-.23-1,.2a4.83,4.83,0,0,1-.71.72c-.29.27-.51.25-.73-.14a1.08,1.08,0,0,1,.78-1.77c1-.17,1.88-.87,1.84-1.51-.12-1.93,0-3.86,0-5.79a1.49,1.49,0,0,0-.56-1.29.78.78,0,0,1-.15-1.22,1.77,1.77,0,0,0,.33-1.54,6.4,6.4,0,0,0-1.83-2.8c-.94-.94-2.32-1.29-3.35-2.15-.65-.53-1.43-.86-2-1.47a3.76,3.76,0,0,0-2.7-1.39,25.1,25.1,0,0,0-4.37.67,1.71,1.71,0,0,1-1.75-.39A9.22,9.22,0,0,0,61,132a4.48,4.48,0,0,0-3.67-.71c-1.48.46-2.78,1.35-4.3,1.72a1.76,1.76,0,0,1-1.8-.23,13.8,13.8,0,0,1-1.65-1.51c-.58-.69-1.55-.8-2.25-1.32a1.59,1.59,0,0,0-1.63-.16c-2,.83-4.08,1.57-6.13,2.34-2.56,1-5.15,1.85-7.71,2.82-.8.3-1.37-.14-1.28-1a44.65,44.65,0,0,0,.05-4.77c0-.44-.12-.88-.11-1.32a.69.69,0,0,1,.7-.71.54.54,0,0,1,.62.62c0,.16,0,.34.16.42a3,3,0,0,1,1.39,2.23,2,2,0,0,0,.55.74,1.73,1.73,0,0,0,1.87.43c.67-.23.5-.88.5-1.42,0-.13,0-.26,0-.39-.21-1.42-.32-2.89-2-3.46a.46.46,0,0,1-.28-.51,17.11,17.11,0,0,1,.22-1.77c.23-1.14.38-1.23,1.44-.81.57.22,1.13.46,1.66,0a3.23,3.23,0,0,1,2-1.23c.18,0,.35-.36.51-.56a6.73,6.73,0,0,1,2.23-2.24.46.46,0,0,0,.28-.57c-.33-.64-.42-1.4-1-1.9s-.6-.88,0-1.39.67-.93.2-1.69c-.2-.32-.57-.43-.77-.73a1.42,1.42,0,0,0-1.92-.56c-.49.32-.5,1.17-.2,1.9s1,1.13,1.16,2c.06.42.19.76-.22,1a.81.81,0,0,1-1.12-.42,11.45,11.45,0,0,0-.57-1.1,1.57,1.57,0,0,0-2.63-.16c-.43.47-.63,1.13-1.25,1.44-.26.13-.4.59-.76.41s-.37-.61-.41-1a1.85,1.85,0,0,0-1.55-1.65c-.78-.16-1.19.35-1.56.91-.12.2-.2.42-.33.62a4.35,4.35,0,0,0-.34,1.89c0,.27,0,.76-.5.56s-.52-.56-.89-.72l.07,0c0-.42.07-.85.13-1.27a4,4,0,0,1,.17-.44,1.44,1.44,0,0,0,0-1.15v0a2,2,0,0,0-.56-2.36,2.11,2.11,0,0,1-.67-.76c-.39-.92-1.18-.88-1.92-.78-1,.13-1.31.41-1.11,1.08a5.48,5.48,0,0,1,.16,2.09,3.3,3.3,0,0,0,1.24,3.1,4,4,0,0,1,1.7,3.5,1.84,1.84,0,0,0,.94,2c.79.34.84.9.45,1.71a2.83,2.83,0,0,0-2.36-.82c-.75,0-1.12.6-1.7.85-.77.33-.54,1-.46,1.57s.47.7,1,.69.87-.12,1.19.21a3.58,3.58,0,0,0,1.35.74c1,.38,1.06.49.85,1.56a13.47,13.47,0,0,0-.26,4.34c.11.75.3,1.29,1.16,1.41.19,0,.56,0,.61.36s-.21.48-.41.62c-.92.66-1.85,1.32-2.8,1.95-1.36.89-2.74,1.75-4.1,2.66a.91.91,0,0,0-.51.89c.05.32.32.42.56.47.82.17,1.63.35,2.46.44a1,1,0,0,1,1,1.16c0,1.59,0,3.18,0,4.77a2,2,0,0,0,.18,1.15,3.06,3.06,0,0,1,.44,1.94,1.61,1.61,0,0,0,1.15,1.49,21.29,21.29,0,0,0,2.84.47,1.6,1.6,0,0,1,1.44.81c.59.93,1.14,1,2.14.39a2,2,0,0,1,1.16-.35c1.31,0,2.61,0,3.91.06.24,0,.57-.07.61.32a.66.66,0,0,1-.46.67c-.3.13-.65.16-1,.28a1.58,1.58,0,0,0-1,2.15c.71,1.2,3.32,1.5,4,.15a2.17,2.17,0,0,1,1.22-1c.5-.2.73-.35.35-.86a.29.29,0,0,1,.08-.42.55.55,0,0,1,.59,0c.17.11.11.27.05.41a2.26,2.26,0,0,1-.17.35,1.12,1.12,0,0,0,.26,1.41c.34.41.73.28,1.1,0,.18-.12.36-.05.53,0,.63.05,1-.17,1-.86,0-.48.26-.53.65-.53s.94.3,1.43.32c1.79.08,3.4.95,5.17,1.13,2.08.21,4.06,1.1,6.21.93a4.31,4.31,0,0,1,1.9.35,4.34,4.34,0,0,0,3,.07,1.51,1.51,0,0,1,1.55,0,2,2,0,0,0,2,0c.46-.25.41-.79.43-1.26,0-.3-.21-.47-.29-.71a.81.81,0,0,1,.1-.89c.47-.37,1.05-.21,1.59-.15.33,0,.38.3.38.58a7.68,7.68,0,0,0,.66,2.36,1.26,1.26,0,0,0,1.91.64,4.09,4.09,0,0,0,1-1.1,1.83,1.83,0,0,1,2.09-1.21c.35.06.9.05,1-.41a2.26,2.26,0,0,1,1.32-1.78,5.54,5.54,0,0,0,1-.7.92.92,0,0,0,.12-1.27M25.27,141.65c-.36-.06-.81,0-.91-.45s.32-.72.64-1c.13-.11.34-.11.51-.18a4.87,4.87,0,0,0,2.16-1.57,4.91,4.91,0,0,1,2.75-1.91,2,2,0,0,1,2,.56c1.89,1.78,3.46,3.86,5.38,5.61.45.41.26.66-.2.82a3,3,0,0,1-.55.11,2.67,2.67,0,0,1-1-.18,4.3,4.3,0,0,0-1.66-.4c-1.65.09-3.17-.55-4.76-.78s-2.93-.45-4.39-.66m5.18,9.79c-.35,0-.43-.3-.44-.61s.1-.73.49-.74.3.4.37.63.05.72-.42.72m3.86,1A1.41,1.41,0,0,1,33.12,151c0-.52.35-.64.76-.66.59,0,1,.55,1,1.37-.08.29,0,.75-.6.75m2.53-3.67c-1.92-.08-3.79-.59-5.73-.54a1.54,1.54,0,0,1-1.58-1c-.28-.81-.51-1.63-.69-2.25,0-.84.3-1.05.88-.81a2.68,2.68,0,0,0,1.22.12,13.28,13.28,0,0,1,4,.58,4.57,4.57,0,0,0,1.48.06,9.26,9.26,0,0,1,1.66.36.4.4,0,0,1,.29.61,3.39,3.39,0,0,0-.26,1.74c-.06,1-.35,1.17-1.28,1.14m1.28,3.94c-.57-.05-1-.25-.95-.79s0-1,.71-1a1,1,0,0,1,1,1c0,.5-.37.69-.74.76m.3-12.37c-.27-.29-.43-.63-.7-.91A9.34,9.34,0,0,0,35,136.93c-.26-.12-.59-.32-.52-.7a1,1,0,0,1,.67-.81c2.21-.91,4.45-1.76,6.62-2.77.84-.39,1.76-.54,2.56-1a2.7,2.7,0,0,1,1.51-.2c1.31-.17,2.23.78,3.3,1.36a14.16,14.16,0,0,1,1.58,1.12c.49.37.59.76.08,1.22a30.94,30.94,0,0,1-6.7,4.83.88.88,0,0,0-.52.95.91.91,0,0,1-.61,1l-1.54.72a.6.6,0,0,1-.81-.26c-.57-.86-1.5-1.31-2.19-2.05m6.69,3.92A29.41,29.41,0,0,1,49.88,142a3.35,3.35,0,0,0,1.2-.79c.68-.68,1-.67,1.68,0s1.25,1.57,2,2.23a21.52,21.52,0,0,1,2.8,3.08c.13.16.31.31.19.55s-.32.11-.42.12c-2.6-.54-5.26-.35-7.71-1.44a5.31,5.31,0,0,0-2.46-.27A3.59,3.59,0,0,1,45.1,145c-.18-.1-.42-.15-.41-.42s.24-.28.42-.39m-2.06,9.14c-.58,0-.58-.39-.58-.64,0-.5,0-.78.47-.76s.61.31.61.73,0,.68-.5.67m3.8.81c-.46,0-.56-.4-.55-.78a.46.46,0,0,1,.54-.5c.48,0,.48.36.49.62s-.12.67-.48.66m.58-3.4c-.11,0-.16-.12-.14-.23a.31.31,0,0,1,.25-.27,1.5,1.5,0,0,1,1.41.09,8.34,8.34,0,0,1,.88.66c-.95.31-1.63-.3-2.4-.25m3.71,4.67c-.52.08-1.27-.76-1.3-1.34s.2-.69.7-.69c.72,0,1.27.38,1.28,1-.11.37-.09.94-.68,1m5,.41c-.64.19-1.34.41-1.89-.15a1.34,1.34,0,0,1-.34-1.16.61.61,0,0,1,.57-.47,8,8,0,0,1,1.83.22.66.66,0,0,1,.39.71.89.89,0,0,1-.56.85m7,.45c-.1.61-.57.78-1.18.76a12.77,12.77,0,0,1-3.32-.37,1.25,1.25,0,0,1-.6-1.82.49.49,0,0,1,.55-.2,6.49,6.49,0,0,0,.93.08,5.4,5.4,0,0,1,2.81.46c.46.21.9.52.81,1.09m7.15-1.67a3.74,3.74,0,0,1-1.82-.29,13.72,13.72,0,0,0-3-.8c-.49-.11-.72-.22-.46-.84.4-.94-.65-.93-1.08-1.29a.86.86,0,0,0-1.25.17c-.19.24,0,.49.18.71.23.38.67.54,1.13,1a6.55,6.55,0,0,1-3-.07,25.28,25.28,0,0,0-5.51-.86,5.89,5.89,0,0,1-2-.46,5.35,5.35,0,0,0-1.7-.16,4.12,4.12,0,0,1-.7,0c-1.13-.29-1.12-.3-.53-1.23.07-.1.06-.26.13-.36.25-.36.64-.72.27-1.17a1.68,1.68,0,0,0-1.59-.65,4.38,4.38,0,0,1-1.83-.23,8.51,8.51,0,0,0-3.18,0,.75.75,0,0,0-.64,1.1.65.65,0,0,1-.15.85c-.33.27-.52-.05-.77-.12a2,2,0,0,1-1.66-2.25c.06-.47-.27-.84-.39-1.26s0-.59.45-.55a3.48,3.48,0,0,1,2.41.7,1.54,1.54,0,0,0,1.09.34,41.52,41.52,0,0,1,4.16.4,10.8,10.8,0,0,1,3.48,1,2.36,2.36,0,0,0,1.21.21,14.3,14.3,0,0,1,3.74.52,14.05,14.05,0,0,0,4.24.46,8.12,8.12,0,0,1,3.53.25,3.51,3.51,0,0,0,1.55,0,9.81,9.81,0,0,1,3.84.59c.31.07.57.27.54.58a10.07,10.07,0,0,0,.36,2.68c.17,1,0,1.13-1,1.15M60.1,145.71c.48-.49,1.18-.66,1.57-1.23a6.71,6.71,0,0,1,2.65-1.94,1.37,1.37,0,0,1,1.69.29,37.53,37.53,0,0,1,3.16,3.4c.29.33.68.57,1,.87s.7.63.51,1.05-.74.4-1.18.5a14.22,14.22,0,0,1-1.59-.4,9.76,9.76,0,0,0-2.83-.43,17.4,17.4,0,0,1-4.71-.55c-.8-.28-.87-.92-.26-1.56m11.55-.89A8.89,8.89,0,0,0,70,143.16a18.61,18.61,0,0,0-2.14-1.73c-1.19-.77-2.46-1.29-3.79-.38a22,22,0,0,1-4.46,2.2,2.44,2.44,0,0,0-.91.58,1,1,0,0,1-1.46.06,26.33,26.33,0,0,1-3.72-3.52,1.51,1.51,0,0,0-1.49-.6c-.83.09-1.67,0-2.51.06a5.92,5.92,0,0,0-2.29.62c-.56.27-1.19,0-1.77.26a5,5,0,0,1,2.78-1.7,7.58,7.58,0,0,0,3.2-1.34c.81-.63,1.88-.81,2.76-1.39a1.62,1.62,0,0,0,.88-1.49c0-1.18.19-1.4,1.32-1.51a2.84,2.84,0,0,0,1.33-.41,1.55,1.55,0,0,1,1.81.12c1.22.76,2.35,1.67,3.61,2.36a3.06,3.06,0,0,0,3.06.06c2.49-1.35,3.24-1,4.83.41a8.07,8.07,0,0,0,1.52,1.08,5.51,5.51,0,0,1,1.77,1.49,6.53,6.53,0,0,0,1.93,1.53c1.27.71,1.33,1.65.23,2.62a23.84,23.84,0,0,1-3.11,2.55,1.24,1.24,0,0,1-1.74-.27m3.45,10.55c-.11.41-.21,1.11-.88,1.12-.46,0-.56-.63-.65-1.07,0-.25.87-.94,1.17-.92s.39.2.36.87m-1.22-2c-.16.16-.28.34-.51.25a.7.7,0,0,1-.43-.6A8.28,8.28,0,0,0,72.2,150a.62.62,0,0,1,.31-.85,30.13,30.13,0,0,0,4.16-3.65c.22-.21.41-.63.71-.51s.12.6.17.85c-.1,1.44-.19,2.82-.28,4.19a.68.68,0,0,1-.27.62,15.21,15.21,0,0,0-3.12,2.76"/><path class="cls-2" d="M58.38,152.12A3.46,3.46,0,0,1,55.31,151c-.14-.16-.33-.27-.24-.51s.29-.28.5-.3a5.3,5.3,0,0,1,2.31.17,4.37,4.37,0,0,0,1.39.16,1,1,0,0,1,1,.87c0,.61-.49.79-1,.78h-.85"/></svg>